<svg id="Layer_1" xmlns="http://www.w3.org/2000/svg" viewBox="0 0 200 200"><defs><style>.cls-1{fill:#ff3;stroke-width:11px;}.cls-1,.cls-2{stroke:#be1e2d;stroke-miterlimit:10;}.cls-2{fill:#be1e2d;}</style></defs><path class="cls-1" d="M169.78,137.28H66.06a2.79,2.79,0,0,0-1.92.75L31.07,168.59a2.83,2.83,0,0,1-4.75-2.19l1-26.46a2.85,2.85,0,0,0-2.36-2.89A13.74,13.74,0,0,1,13.7,123.58V47.18A16.58,16.58,0,0,1,30.22,30.65H169.78A16.58,16.58,0,0,1,186.3,47.18v73.57A16.58,16.58,0,0,1,169.78,137.28Z"/><g id="UMAPlj.tif"><path class="cls-2" d="M44.08,63.63v-3c4.25-5.41,8.61-10.73,12.69-16.26a6.75,6.75,0,0,1,6.14-3.14q37.1.16,74.18,0a6.75,6.75,0,0,1,6.14,3.14c4.08,5.53,8.44,10.85,12.69,16.26v3a39.7,39.7,0,0,0-3.18,2.88q-24.66,27.6-49.29,55.24c-3.18,3.57-3.73,3.56-6.9,0Q75.24,97.85,53.91,74C50.74,70.43,47.36,67.07,44.08,63.63ZM142.66,51.5l-.78.27a32,32,0,0,0,0,3.53c.36,3.36-1,4.74-4.47,4.55s-7,.16-10.43-.14a5.35,5.35,0,0,1-3.75-2.16c-3-5.62-7.71-9.32-13.8-10.31A54.11,54.11,0,0,0,93.33,47c-4.84.69-7.65,5.68-7.36,10.64.21,3.67,2.41,5.39,8.29,6.3a41.32,41.32,0,0,0,5.56.37c5.22.09,10.46-.16,15.65.2,9.07.65,18.54.42,25.06,8.67l10-11.32ZM74.8,90.37c4.75-1.05,8.76-2.8,12.68-2.62C93.54,88,96.3,93,98.53,98c.48,1.08,1.57,2.78,2.27,2.73,6.83-.46,13.66-1.35,19.45-5.36,1.42-1,2.86-3.16,2.78-4.72-.07-1.21-2.35-2.51-3.88-3.38a12.76,12.76,0,0,0-4.58-1.43c-7.37-.94-14.74-2.1-22.15-2.51-7.82-.42-15.69-.09-24-.09ZM100,118.65l12.92-14.51-23.59,2.44ZM70.86,45.89A57.92,57.92,0,0,0,64,46a5.88,5.88,0,0,0-3.66,1.68C56.64,52.22,53.17,57,49.49,61.87l4.18,4.84C56.18,56.75,62.24,50.4,70.86,45.89Z"/></g></svg>