<svg xmlns="http://www.w3.org/2000/svg" viewBox="0 0 200 200">
  <defs>
    <style>.cls-1{fill:#666;}.cls-1,.cls-2{stroke:#000;stroke-miterlimit:10;}.cls-2{fill:#be1e2d;}</style>
  </defs>
  <ellipse class="cls-1" cx="22.03" cy="20.44" rx="9.6" ry="10.63"/>
  <rect class="cls-2" x="42.47" y="9.82" width="112.66" height="21.26" rx="9.23"/>
  <ellipse class="cls-1" cx="176.92" cy="20.44" rx="10.66" ry="10.63"/>
  <rect class="cls-2" x="12.42" y="50.15" width="60.09" height="21.26" rx="9.23"/>
  <rect class="cls-1" x="86.7" y="50.15" width="100.88" height="21.26" rx="9.23"/>
  <ellipse class="cls-1" cx="23.08" cy="101.11" rx="10.66" ry="10.63"/>
  <rect class="cls-2" x="42.18" y="90.48" width="112.94" height="21.26" rx="9.23"/>
  <ellipse class="cls-1" cx="176.92" cy="101.11" rx="10.66" ry="10.63"/>
  <rect class="cls-2" x="127.49" y="130.81" width="60.09" height="21.26" rx="9.23"
        transform="translate(315.07 282.87) rotate(180)"/>
  <rect class="cls-1" x="12.42" y="130.81" width="100.88" height="21.26" rx="9.23"
        transform="translate(125.73 282.87) rotate(-180)"/>
  <ellipse class="cls-1" cx="178.73" cy="181.77" rx="8.85" ry="10.63"/>
  <rect class="cls-2" x="42.18" y="171.14" width="112.94" height="21.26" rx="9.23"
        transform="translate(197.3 363.53) rotate(-180)"/>
  <ellipse class="cls-1" cx="23.08" cy="181.77" rx="10.66" ry="10.63"/>
</svg>
